# xmcd
#
# Track frame offsets: 
#        150
#        14775
#        38101
#        56206
#        77015
#        95331
#        112210
#        129079
#        150019
#        166875
#        187843
#        204830
#        222386
#        240452
#        258119
#
# Disc length: 3699 seconds
#
# Revision: 0
# Processed by: cddbd v1.5.2PL0 Copyright (c) Steve Scherf et al.
# Submitted via: ExactAudioCopyFreeDBPlugin 1.0
#
DISCID=b90e710f
DTITLE=The Roving Seats - The Roving Seats
DYEAR=2014
DGENRE=Country
TTITLE0=Your Fire
TTITLE1=To Call Your Name Aloud
TTITLE2=Still Love You
TTITLE3=Sometimes
TTITLE4=No Lucky Star
TTITLE5=How The Emptied Stand Out
TTITLE6=A Daddy And His Son
TTITLE7=Lost
TTITLE8=A Thing You Can Lose
TTITLE9=Cliches and Magic
TTITLE10=Valentine
TTITLE11=Hold Me
TTITLE12=Something Isn't Right With Your Sky
TTITLE13=Coppelia
TTITLE14=Never Meant To Fly
EXTD=
EXTT0=
EXTT1=
EXTT2=
EXTT3=
EXTT4=
EXTT5=
EXTT6=
EXTT7=
EXTT8=
EXTT9=
EXTT10=
EXTT11=
EXTT12=
EXTT13=
EXTT14=
PLAYORDER=
